#!OML:ASF F:\VICON\USERDATA\INSTALL\rory3\rory3.ASF
:FULLY-SPECIFIED
:DEGREES
416
root 0.872094 16.9137 -2.79495 0.936807 -60.5503 -0.300034
lowerback 9.09649 -0.582236 -3.68158
upperback -0.536395 -1.14037 0.729839
thorax -5.58503 -0.444133 2.99394
lowerneck -17.8386 -8.64426 -15.3915
upperneck -18.1697 -8.5979 14.8768
head -1.27026 -3.92393 6.79519
rclavicle 1.98443e-014 8.74653e-015
rhumerus 67.1351 -34.9986 -34.2351
rradius 61.0667
rwrist -1.37271
rhand -36.7267 2.28253
rfingers 7.12502
rthumb -9.811 -27.4689
lclavicle 1.98443e-014 8.74653e-015
lhumerus 46.4516 12.6889 14.129
lradius 93.832
lwrist -5.31464
lhand -34.7332 21.1529
lfingers 7.12502
lthumb -7.88727 50.9858
rfemur -11.0882 -6.78104 15.2746
rtibia 46.1477
rfoot -29.7182 -0.628567
rtoes -10.9769
lfemur -13.2031 -9.18946 0.632082
ltibia 22.5115
lfoot -8.49726 1.92581
ltoes -26.47
417
root 0.856261 16.9044 -2.89489 1.12775 -61.2743 -0.571603
lowerback 8.98772 -0.349916 -3.53133
upperback -0.450586 -0.818519 0.569536
thorax -5.46228 -0.296447 2.69484
lowerneck -17.2466 -8.65838 -15.8707
upperneck -18.7452 -8.53073 15.8915
head -1.42881 -3.90193 7.24553
rclavicle -1.34242e-014 -1.64991e-014
rhumerus 68.3855 -34.8499 -35.8309
rradius 60.5068
rwrist -1.74522
rhand -37.7886 1.49723
rfingers 7.12502
rthumb -10.8354 -28.2033
lclavicle -1.34242e-014 -1.64991e-014
lhumerus 46.4147 12.2243 13.5366
lradius 93.7372
lwrist -5.97762
lhand -34.7768 21.5095
lfingers 7.12502
lthumb -7.9294 51.3407
rfemur -11.3154 -6.14834 15.7024
rtibia 46.3255
rfoot -29.6534 0.248007
rtoes -9.05933
lfemur -12.7196 -9.30939 1.10353
ltibia 22.1377
lfoot -8.26933 2.80827
ltoes -25.0556
418
root 0.838586 16.8958 -2.98956 1.49735 -61.8722 -0.919479
lowerback 8.75974 -0.239279 -3.35688
upperback -0.464555 -0.653358 0.401429
thorax -5.36341 -0.224141 2.39545
lowerneck -17.7867 -8.13717 -14.1764
upperneck -18.1153 -8.19352 14.0061
head -1.42403 -3.78273 6.35372
rclavicle 3.59179e-014 -1.37161e-014
rhumerus 70.0623 -34.199 -37.9532
rradius 59.6558
rwrist -1.66018
rhand -38.9675 1.01478
rfingers 7.12502
rthumb -11.9723 -28.6228
lclavicle 3.59179e-014 -1.37161e-014
lhumerus 45.9171 11.7722 12.6658
lradius 93.9149
lwrist -6.20312
lhand -35.0378 21.2036
lfingers 7.12502
lthumb -8.18127 51.0252
rfemur -11.7162 -5.69635 16.1176
rtibia 46.6327
rfoot -29.503 1.22605
rtoes -7.80721
lfemur -12.3995 -9.67474 1.59245
ltibia 21.8
lfoot -8.01899 3.91033
ltoes -24.5753
419
root 0.823382 16.8891 -3.08156 1.37357 -62.2716 -0.753477
lowerback 8.59081 -0.183688 -3.34144
upperback -0.475197 -0.581749 0.214275
thorax -5.28581 -0.193306 2.17987
lowerneck -17.9815 -7.97738 -13.7154
upperneck -17.8495 -8.06162 13.7002
head -1.37225 -3.73217 6.1767
rclavicle -1.11319e-014 1.25234e-014
rhumerus 70.8876 -33.9502 -39.0443
rradius 59.4023
rwrist -2.66384
rhand -39.8651 0.826043
rfingers 7.12502
rthumb -12.8377 -28.7592
lclavicle -1.11319e-014 1.25234e-014
lhumerus 45.3876 11.4018 11.8369
lradius 94.1482
lwrist -6.31534
lhand -34.9493 20.6778
lfingers 7.12502
lthumb -8.09587 50.5027
rfemur -12.1345 -5.51975 16.2605
rtibia 47.0081
rfoot -29.3603 2.02197
rtoes -5.74745
lfemur -12.1787 -10.1589 1.74904
ltibia 21.5389
lfoot -7.73191 5.04291
ltoes -24.1088
420
root 0.80999 16.8885 -3.16538 1.28979 -62.6175 -0.763112
lowerback 8.56031 -0.158611 -3.08738
upperback -0.464673 -0.53023 0.0471076
thorax -5.264 -0.17796 1.85527
lowerneck -18.105 -8.11408 -14.2264
upperneck -17.7305 -8.07845 14.6843
head -1.22261 -3.71979 6.56334
rclavicle -1.42876e-015 1.19271e-015
rhumerus 71.2721 -34.0756 -39.5621
rradius 59.3082
rwrist -3.97925
rhand -40.3294 0.760878
rfingers 7.12502
rthumb -13.2853 -28.7957
lclavicle -1.42876e-015 1.19271e-015
lhumerus 45.0149 10.9142 11.156
lradius 94.1971
lwrist -6.83068
lhand -34.6557 20.2803
lfingers 7.12502
lthumb -7.81246 50.116
rfemur -12.442 -5.70325 16.5149
rtibia 47.3216
rfoot -29.164 2.00612
rtoes -6.25817
lfemur -11.8908 -10.5999 1.88886
ltibia 21.3994
lfoot -7.55375 6.13078
ltoes -23.9313
421
root 0.792635 16.894 -3.24244 0.674014 -62.927 -0.257407
lowerback 8.53599 -0.128773 -3.1401
upperback -0.41922 -0.505419 -0.147657
thorax -5.20534 -0.168892 1.67818
lowerneck -18.3806 -8.08744 -14.3022
upperneck -17.4706 -7.98058 15.0652
head -1.08653 -3.66062 6.68896
rclavicle -2.28602e-015 -3.97569e-015
rhumerus 71.9403 -33.9408 -40.2389
rradius 58.8953
rwrist -4.60349
rhand -40.7796 0.859027
rfingers 7.12502
rthumb -13.7192 -28.6687
lclavicle -2.28602e-015 -3.97569e-015
lhumerus 45.061 10.3288 10.6303
lradius 93.7381
lwrist -7.55952
lhand -34.8207 19.6149
lfingers 7.12502
lthumb -7.97171 49.4446
rfemur -12.5617 -6.1271 16.4584
rtibia 47.5268
rfoot -28.9617 2.21357
rtoes -7.00783
lfemur -11.5264 -11.1189 1.65499
ltibia 21.3531
lfoot -7.57812 7.3779
ltoes -23.2953
422
root 0.773049 16.9049 -3.31691 0.127239 -63.1378 0.224586
lowerback 8.40415 -0.129661 -3.17567
upperback -0.375447 -0.514716 -0.330347
thorax -5.08599 -0.177831 1.50772
lowerneck -18.8217 -8.03051 -13.9779
upperneck -16.9686 -7.94565 14.7298
head -0.917846 -3.63811 6.5022
rclavicle -9.98893e-015 3.57812e-015
rhumerus 72.6497 -33.6246 -40.863
rradius 58.3073
rwrist -4.61035
rhand -41.2219 0.714877
rfingers 7.12502
rthumb -14.1454 -28.7836
lclavicle -9.98893e-015 3.57812e-015
lhumerus 43.7455 10.1136 9.8594
lradius 94.6963
lwrist -7.97113
lhand -34.8026 19.3911
lfingers 7.12502
lthumb -7.9543 49.2214
rfemur -12.5638 -6.54806 16.4045
rtibia 47.5897
rfoot -28.8213 2.75391
rtoes -6.44953
lfemur -11.2387 -11.5028 1.36031
ltibia 21.3618
lfoot -7.72193 8.63936
ltoes -22.519
423
root 0.759804 16.914 -3.39216 -0.153903 -63.1844 0.371367
lowerback 8.46468 -0.210215 -3.12149
upperback -0.410201 -0.62241 -0.382656
thorax -5.15231 -0.231727 1.43701
lowerneck -19.3162 -8.09202 -13.8317
upperneck -16.3799 -8.0299 14.4585
head -0.690111 -3.66348 6.35157
rclavicle 3.90612e-014 1.19271e-015
rhumerus 73.3657 -33.217 -41.0588
rradius 57.4983
rwrist -4.8504
rhand -41.4723 0.730587
rfingers 7.12502
rthumb -14.3867 -28.7508
lclavicle 3.90612e-014 1.19271e-015
lhumerus 42.9883 9.75126 9.17956
lradius 94.9162
lwrist -8.46591
lhand -33.6597 19.5492
lfingers 7.12502
lthumb -6.85111 49.4184
rfemur -12.4335 -6.89681 16.5072
rtibia 47.547
rfoot -28.7354 3.52492
rtoes -4.12321
lfemur -11.0148 -11.6332 1.22661
ltibia 21.4007
lfoot -8.16667 9.47194
ltoes -21.3506
424
root 0.744542 16.9267 -3.46597 -0.179465 -63.1867 0.382892
lowerback 8.4283 -0.345874 -3.07018
upperback -0.490346 -0.799743 -0.41924
thorax -5.20844 -0.319233 1.3925
lowerneck -19.3667 -8.0687 -13.9888
upperneck -16.3334 -7.95257 14.777
head -0.648915 -3.61766 6.48316
rclavicle -1.64246e-014 -1.55052e-014
rhumerus 74.3693 -32.6885 -41.6764
rradius 56.4687
rwrist -4.58925
rhand -41.368 1.01969
rfingers 7.12502
rthumb -14.2862 -28.4689
lclavicle -1.64246e-014 -1.55052e-014
lhumerus 42.2378 9.28229 8.51761
lradius 95.0288
lwrist -8.94808
lhand -33.3045 19.7826
lfingers 7.12502
lthumb -6.50818 49.6626
rfemur -12.4005 -7.14986 16.7044
rtibia 47.4159
rfoot -28.6561 4.15425
rtoes -2.44326
lfemur -10.9754 -11.2732 1.12329
ltibia 21.5501
lfoot -8.74694 9.88993
ltoes -20.6944
425
root 0.723807 16.9469 -3.53619 -0.541845 -63.2444 0.837825
lowerback 8.22187 -0.414892 -3.1868
upperback -0.530362 -0.901788 -0.523255
thorax -5.12915 -0.368828 1.36015
lowerneck -19.4843 -7.98873 -14.0575
upperneck -16.3233 -7.81956 14.8677
head -0.638504 -3.54588 6.5331
rclavicle -1.52443e-014 9.54166e-015
rhumerus 75.2159 -32.3438 -41.9589
rradius 55.3492
rwrist -4.31244
rhand -41.0488 1.55686
rfingers 7.12502
rthumb -13.9787 -27.9532
lclavicle -1.52443e-014 9.54166e-015
lhumerus 41.9486 8.94269 7.90871
lradius 94.7956
lwrist -9.49291
lhand -34.0824 19.9141
lfingers 7.12502
lthumb -7.25913 49.7696
rfemur -12.4304 -7.45825 16.6937
rtibia 47.209
rfoot -28.4726 4.47707
rtoes -2.34821
lfemur -11.01 -10.471 0.704118
ltibia 21.8573
lfoot -9.2661 10.0071
ltoes -21.1563
426
root 0.700983 16.9734 -3.60493 -0.878088 -63.3631 1.32358
lowerback 7.95359 -0.49654 -3.27324
upperback -0.576294 -1.02025 -0.725623
thorax -5.02261 -0.429418 1.20923
lowerneck -19.9373 -7.87587 -13.7913
upperneck -15.9837 -7.68458 14.8567
head -0.502766 -3.4756 6.477
rclavicle -1.95057e-015 6.75868e-015
rhumerus 75.7883 -32.1401 -41.9406
rradius 54.3007
rwrist -4.19941
rhand -40.5448 1.57362
rfingers 7.12502
rthumb -13.4929 -27.9693
lclavicle -1.95057e-015 6.75868e-015
lhumerus 42.0315 8.81637 7.0094
lradius 94.1917
lwrist -9.5981
lhand -34.198 19.18
lfingers 7.12502
lthumb -7.3707 49.0316
rfemur -12.4745 -7.6625 16.6918
rtibia 46.9192
rfoot -28.2268 4.51045
rtoes -3.03199
lfemur -11.1343 -9.56819 0.245848
ltibia 22.4162
lfoot -9.89862 9.73555
ltoes -21.6287
427
root 0.681295 16.9999 -3.66766 -1.27634 -63.4365 1.81016
lowerback 7.80256 -0.547635 -3.30855
upperback -0.662239 -1.10171 -0.978636
thorax -5.0282 -0.471849 0.974096
lowerneck -20.0247 -7.76698 -13.4768
upperneck -15.9513 -7.59044 14.9603
head -0.494549 -3.44317 6.46374
rclavicle 1.09332e-014 -2.78299e-015
rhumerus 76.2062 -32.007 -41.8886
rradius 53.1603
rwrist -3.637
rhand -39.62 1.48332
rfingers 7.12502
rthumb -12.6015 -28.1166
lclavicle 1.09332e-014 -2.78299e-015
lhumerus 42.1279 8.5589 6.16332
lradius 93.6783
lwrist -9.48289
lhand -34.8496 18.6121
lfingers 7.12502
lthumb -7.9996 48.4408
rfemur -12.3633 -7.61289 16.6695
rtibia 46.5558
rfoot -27.9203 4.78871
rtoes -1.59905
lfemur -11.2974 -8.84264 -0.261361
ltibia 23.2213
lfoot -10.6882 8.92331
ltoes -20.9979
428
root 0.663939 17.0234 -3.72309 -1.26079 -63.5554 1.83368
lowerback 7.56675 -0.513273 -3.13625
upperback -0.614247 -1.0341 -1.08404
thorax -4.85212 -0.447902 0.756621
lowerneck -20.2575 -7.72317 -13.1374
upperneck -15.9883 -7.58893 14.691
head -0.506857 -3.45443 6.31837
rclavicle -2.00027e-014 -1.03368e-014
rhumerus 76.8015 -32.1105 -41.5327
rradius 51.8633
rwrist -2.6931
rhand -38.8555 0.973119
rfingers 7.12502
rthumb -11.8644 -28.6708
lclavicle -2.00027e-014 -1.03368e-014
lhumerus 42.4418 8.2661 5.7693
lradius 93.1477
lwrist -9.86468
lhand -35.5483 19.3929
lfingers 7.12502
lthumb -8.67389 49.1947
rfemur -12.2118 -7.44091 16.9003
rtibia 46.1198
rfoot -27.7304 4.76398
rtoes -1.82295
lfemur -11.5188 -8.03007 -0.58257
ltibia 24.2119
lfoot -11.3057 7.71159
ltoes -20.288
429
root 0.647987 17.051 -3.77861 -1.23267 -63.6892 1.89501
lowerback 7.35119 -0.461608 -3.01303
upperback -0.589601 -0.945498 -1.10866
thorax -4.7099 -0.409822 0.649197
lowerneck -20.7967 -7.74993 -13.0183
upperneck -15.7865 -7.61496 14.3926
head -0.399913 -3.4548 6.18432
rclavicle 4.29872e-015 -5.1684e-015
rhumerus 77.2325 -32.2074 -40.755
rradius 50.6484
rwrist -1.7017
rhand -38.4327 -0.114908
rfingers 7.12502
rthumb -11.4566 -29.7819
lclavicle 4.29872e-015 -5.1684e-015
lhumerus 42.9663 7.75011 5.87772
lradius 92.2581
lwrist -10.8413
lhand -34.7735 19.533
lfingers 7.12502
lthumb -7.92614 49.3644
rfemur -12.146 -7.25119 17.127
rtibia 45.6553
rfoot -27.5224 4.69096
rtoes -2.06913
lfemur -11.815 -7.44343 -0.927478
ltibia 25.2886
lfoot -11.7686 6.88846
ltoes -20.5591
